# xmcd CD database file
#
# Track frame offsets:
#	150
#	18605
#	37942
#	53618
#	65381
#	81313
#	96936
#	115398
#	133392
#	147734
#	159773
#	172682
#	187209
#	204472
#	218469
#	230888
#	241043
#	252803
#	267679
#	281799
#
# Disc length: 3943 seconds
#
# Revision: 3
# Processed by: cddbd v1.5.2PL0 Copyright (c) Steve Scherf et al.
# Submitted via: CDex 1.70beta2
#
DISCID=290f6514
DTITLE=Various Artist - Country Tearjerkers - CD2 - (20 Original Heartbreakers)
DYEAR=2004
DGENRE=Country Classics
TTITLE0=Shenandoah With Alison Krauss - Somewhere In The Vicinity Of The Heart
TTITLE1=Gail Davies - Jagged Edge Of A Broken Heart
TTITLE2=Tanya Tucker - Soon
TTITLE3=Wild Rose - There Goes My Love
TTITLE4=George Ducas - Hello Cruel World
TTITLE5=Kenny Rogers - Unchained Melody
TTITLE6=Juice Newton - Angel Of The Morning
TTITLE7=Wynn Stewart - For The Good Times
TTITLE8=Billie Jo Spears and Del Reeves - Suspicious Minds
TTITLE9=Glen Campbell - Galveston
TTITLE10=Dr. Hook - When You're In Love With A Beautiful Woman
TTITLE11=Crystal Gayle - Cry Me A River
TTITLE12=Kenny Rogers - I Swear
TTITLE13=Bobbie Gentry - Raindrops Keep Falling On My Head
TTITLE14=Billie Jo Spears - What I've Got In Mind
TTITLE15=Patsy Cline - Three Cigarettes In An Ashtray
TTITLE16=Jerry Wallace - If You Leave Me Tonight I'll Cry
TTITLE17=Geln Campbell - Your Cheatin' Heart
TTITLE18=Wanda Jackson - Just Call Me Lonesome
TTITLE19=Ferlin Husky - I'm So Lonesome When I Cry
EXTD=YEAR: 2004
EXTT0=
EXTT1=
EXTT2=
EXTT3=
EXTT4=
EXTT5=
EXTT6=
EXTT7=
EXTT8=
EXTT9=
EXTT10=
EXTT11=
EXTT12=
EXTT13=
EXTT14=
EXTT15=
EXTT16=
EXTT17=
EXTT18=
EXTT19=
PLAYORDER=
